<svg width="512" height="512" viewBox="0 0 512 512" fill="none" xmlns="http://www.w3.org/2000/svg">
<path d="M223.11 476.368L221.942 475.675M223.11 476.368C240.681 486.796 263.605 488.943 272.302 489.385M223.11 476.368C222.716 476.134 222.326 475.903 221.942 475.675M226.97 28.8623C216.742 30.9296 211.127 32.7329 201.24 36.0718C191.198 39.463 185.598 41.5642 176.024 46.1136C167.005 50.3994 162.122 53.2037 153.639 58.4728C143.596 64.7114 138.117 68.5279 128.938 75.9817C119.112 83.961 113.893 88.8606 105.267 98.1253C94.4825 109.707 88.814 116.706 80.3086 130.053C73.6856 140.447 70.584 146.686 65.3852 157.861C60.3608 168.661 57.6914 174.838 54.064 186.185C50.44 197.52 48.956 204.08 46.8596 215.795C44.0131 231.701 43.0083 240.833 43.0001 256.992C42.9929 270.913 43.647 278.777 45.8304 292.525C47.5102 303.103 48.8644 308.989 51.7483 319.304C55.1049 331.309 57.3659 337.981 62.2976 349.429C69.063 365.133 73.7743 373.661 83.3962 387.794C92.0023 400.435 97.4898 407.164 108.097 418.177C119.616 430.137 126.745 436.341 140.26 445.985C156.192 457.354 166.027 462.703 184.001 470.446C193.345 474.472 198.712 476.493 208.444 479.458C215.299 481.547 219.198 482.559 226.198 484.093C233.573 485.709 237.755 486.441 245.238 487.44C253.929 488.601 266.292 489.166 272.302 489.385M226.97 28.8623L227.859 28.6825M226.97 28.8623C227.28 28.7995 227.576 28.7396 227.859 28.6825M221.942 475.675C200.767 463.112 194.766 459.551 182.714 443.668C165.958 421.585 159.371 403.909 160.586 376.207C161.639 352.21 168.082 338.143 181.942 318.531C188.269 309.579 193.263 304.112 200.725 297.675C208.187 291.238 240.349 263.172 240.349 263.172L276.114 234.168C276.114 234.168 289.564 223.588 297.985 216.568C301.695 213.475 305.041 210.886 308.185 208.453L308.186 208.453C315.751 202.6 322.147 197.651 329.633 188.759C335.954 181.25 339.517 176.874 344.041 168.161C355.194 146.683 356.906 129.281 353.304 106.88C349.702 84.4787 334.764 58.5919 309.049 41.7364C290.811 29.7825 260.933 25 255.787 25C252.171 25 249.811 25.1029 246.01 25.515C242.774 25.8657 240.984 26.2536 237.776 26.8024C233.756 27.4902 233.161 27.6104 227.859 28.6825M272.302 489.385C274.507 489.466 275.857 489.5 275.857 489.5C275.857 489.5 274.558 489.5 272.302 489.385ZM210.503 128.251C223.87 122.177 231.868 119.786 246.267 116.922C257.742 114.639 268.138 114.604 276.114 115.119C284.09 115.634 300.345 119.952 310.335 129.281C320.56 138.829 323.402 146.79 325.001 160.694C326.404 172.883 323.675 180.43 318.054 191.334C314.512 198.207 311.235 201.748 306.384 206.991C305.835 207.584 305.266 208.199 304.674 208.843C304.256 209.298 303.868 209.724 303.5 210.13L303.499 210.131L303.498 210.131C301.493 212.335 300.059 213.909 297.47 216.053C294.404 218.59 284.199 225.566 276.114 229.957C269.057 233.789 264.301 235.368 257.408 237.656L257.407 237.656C256.402 237.99 255.352 238.338 254.244 238.711C242.646 242.61 235.989 244.673 223.882 246.436C216.5 247.511 212.302 247.915 204.842 247.981C196.48 248.054 191.689 248.061 183.486 246.436C182.526 246.245 181.622 246.075 180.758 245.913C175.789 244.978 172.19 244.301 167.276 241.544C163.893 239.645 161.958 238.448 159.3 235.621C156.087 232.206 153.125 225.322 153.125 225.322C153.125 225.322 151.295 218.484 151.066 213.993C150.824 209.256 151.581 203.951 152.095 201.891C152.165 201.614 152.252 201.242 152.357 200.794C153.032 197.915 154.454 191.852 156.727 186.957C159.342 181.324 161.171 178.33 164.446 173.053C167.799 167.65 169.742 164.632 173.709 159.664C176.641 155.991 178.361 153.974 181.685 150.652C182.855 149.483 183.806 148.505 184.672 147.614L184.673 147.613C186.793 145.433 188.404 143.777 191.462 141.125C194.584 138.418 197.289 136.468 200.725 134.173C201.411 133.715 202.045 133.283 202.649 132.872C205.24 131.106 207.284 129.713 210.503 128.251Z" stroke="black" stroke-width="2"/>
<path d="M309.413 41.5822C291.138 29.6248 261.198 24.8409 256.041 24.8409C256.041 24.8409 261.378 24.1596 264.807 23.8107C268.326 23.4526 270.296 23.1575 273.832 23.038C276.146 22.9598 277.446 23.0243 279.762 23.038C289.533 23.0958 295.046 22.8643 304.772 23.8107C315.86 24.8896 322.118 25.8121 332.876 28.7043C341.209 30.9445 345.655 32.9584 353.761 35.9159C361.665 38.7999 366.24 40.1027 373.872 43.6427C381.802 47.3209 386.046 49.8436 393.468 54.4602C401.626 59.5344 406.023 62.6939 413.579 68.6259C419.083 72.9472 422.118 75.4538 427.245 80.216C435.122 87.5334 439.839 91.5438 446.067 100.306C450.376 106.369 452.559 110.005 455.607 116.789C459.48 125.412 461.093 130.634 462.568 139.97C464.28 150.799 464.904 157.331 462.568 168.043C460.94 175.509 458.833 179.403 455.607 186.33C451.992 194.09 449.437 198.207 444.777 205.389C440.932 211.316 438.599 214.536 434.206 220.07C429.021 226.602 425.718 229.943 420.025 236.039C413.954 242.54 410.515 246.166 404.039 252.265C399.421 256.614 396.84 259.077 391.921 263.082C385.66 268.18 381.891 270.726 375.161 275.188C368.198 279.805 364.249 282.37 356.855 286.263C352.114 288.759 349.314 289.877 344.479 292.187C340.05 294.302 337.469 295.295 333.134 297.595C332.02 298.187 331.477 298.691 330.298 299.141C328.488 299.83 327.977 300.171 325.399 299.913C322.821 299.656 306.577 292.187 306.577 292.187L292.654 286.263C292.654 286.263 288.243 284.018 285.176 283.43L285.033 283.402C281.753 282.773 279.611 282.362 276.41 283.43C272.68 284.674 270.67 286.484 268.675 289.869C267.089 292.56 266.87 294.762 266.612 297.595C266.354 300.428 271.143 314.399 274.089 325.154C277.675 338.241 279.797 345.547 283.371 358.637C287.569 374.007 288.286 383.147 293.943 398.043C295.448 402.007 296.263 404.997 298.584 407.83C300.904 410.663 303.4 411.489 307.092 411.436C309.768 411.398 312.507 409.891 313.281 409.376C314.054 408.861 314.57 408.603 315.859 407.058C317.148 405.512 323.078 395.468 323.078 395.468L332.618 377.954C332.618 377.954 341.944 389.324 348.089 396.498C351.937 400.991 353.885 403.507 357.629 408.088C359.807 410.753 361.242 412.756 363.817 415.042C366.682 417.586 368.032 419.28 371.81 419.936C373.694 420.263 374.81 420.427 376.708 420.193C379.427 419.859 381.212 419.597 383.67 418.39C385.464 417.509 386.032 416.975 387.452 415.637L387.538 415.557C389.387 413.816 391.147 410.663 391.147 410.663C391.147 410.663 392.322 408.06 392.694 406.285C393.273 403.529 393.459 401.784 392.694 399.073C392.108 396.995 391.147 395.468 390.116 394.18C389.085 392.892 386.056 389.292 383.412 386.195C377.303 379.038 367.426 368.166 367.426 368.166C367.426 368.166 361.238 361.263 360.465 359.924C359.691 358.586 359.811 358.379 359.949 357.864C360.087 357.349 360.723 356.576 361.754 356.061C362.785 355.546 371.81 352.455 371.81 352.455L381.092 349.622C381.092 349.622 384.13 348.675 386.248 347.562C388.086 346.596 388.759 346.04 390.116 344.471C391.561 342.8 392.952 339.577 392.952 339.577C392.952 339.577 394.125 337.191 395.273 335.971C396.612 334.548 397.381 333.972 398.882 332.881C401.034 331.318 402.379 330.606 404.813 329.533C406.765 328.672 407.915 328.305 409.969 327.73C412.441 327.037 413.859 326.682 416.415 326.442C418.721 326.226 420.028 326.175 422.346 326.184C424.462 326.193 425.657 326.199 427.76 326.442C430.31 326.737 431.729 327.055 434.206 327.73C437.526 328.634 439.323 329.4 442.457 330.82C446.233 332.532 448.449 333.45 451.739 335.971C455.356 338.744 457.068 340.775 459.732 344.471C462.837 348.779 464.158 351.569 465.92 356.576C467.427 360.858 467.971 363.401 468.498 367.909C469.071 372.804 469.257 375.659 468.498 380.529C468.052 383.398 467.563 384.971 466.694 387.741C465.558 391.359 464.857 393.506 462.826 396.755C461.834 398.342 461.021 399.46 460.248 400.619C459.474 401.778 456.639 404.948 454.317 407.573C450.734 411.623 448.416 413.609 444.52 417.36C439.594 422.102 437.334 424.052 431.628 429.208C427.237 433.175 424.259 435.388 419.252 439.51C415.04 442.977 412.611 444.848 408.165 448.009C402.408 452.103 399.393 454.121 393.468 457.539C388.359 460.487 385.387 461.96 380.06 464.493C374.318 467.224 371.019 468.595 365.106 470.932C359.626 473.098 357.75 473.682 350.925 476.083C345.038 478.155 335.712 480.977 335.712 480.977C335.712 480.977 329.457 482.969 325.399 484.068C320.307 485.446 317.446 486.251 312.249 487.158C307.057 488.064 304.093 488.257 298.842 488.704C293.015 489.199 289.734 489.374 283.887 489.476C280.867 489.529 276.152 489.476 276.152 489.476C276.152 489.476 245.469 489.476 223.295 476.341L222.125 475.647C200.905 463.08 194.892 459.519 182.815 443.631C166.024 421.541 159.424 403.86 160.641 376.151C161.696 352.146 168.153 338.075 182.042 318.458C188.381 309.503 193.386 304.034 200.864 297.595C208.341 291.156 240.571 263.082 240.571 263.082L276.41 234.07C276.41 234.07 289.888 223.487 298.326 216.464C310.989 205.926 319.421 201.24 330.04 188.648C336.375 181.136 339.945 176.759 344.479 168.043C355.654 146.56 357.371 129.152 353.761 106.745C350.151 84.3369 335.182 58.4427 309.413 41.5822Z" stroke="black" stroke-width="2"/>
</svg>
