<svg width="64" height="64" viewBox="0 0 64 64" fill="none" xmlns="http://www.w3.org/2000/svg">
<path fill-rule="evenodd" clip-rule="evenodd" d="M38.2561 5.34205C35.9764 3.84781 32.2417 3.25 31.5984 3.25C31.1464 3.25 30.8514 3.26286 30.3762 3.31437C29.9718 3.35822 29.748 3.4067 29.347 3.4753C28.8445 3.56127 28.7702 3.5763 28.1074 3.71031L27.9962 3.73278C26.7177 3.9912 26.0158 4.21662 24.78 4.63397C23.5247 5.05788 22.8248 5.32053 21.628 5.8892C20.5007 6.42492 19.8903 6.77547 18.8299 7.43411C17.5744 8.21392 16.8897 8.69098 15.7423 9.62271C14.514 10.6201 13.8617 11.2326 12.7833 12.3907C11.4353 13.8384 10.7268 14.7132 9.66357 16.3817C8.8357 17.6808 8.44801 18.4608 7.79815 19.8577C7.1701 21.2077 6.83642 21.9798 6.383 23.3981C5.93001 24.815 5.7445 25.635 5.48245 27.0994C5.12664 29.0877 5.00104 30.2292 5.00001 32.2491C4.99912 33.9891 5.08087 34.9722 5.3538 36.6907C5.56378 38.0128 5.73305 38.7487 6.09353 40.0379C6.51312 41.5386 6.79573 42.3727 7.4122 43.8036C8.25788 45.7667 8.84679 46.8326 10.0495 48.5993C11.1253 50.1794 11.8112 51.0205 13.1371 52.3971C14.577 53.8921 15.4681 54.6677 17.1574 55.8732C19.149 57.2943 20.3784 57.9629 22.6251 58.9308C23.7931 59.4339 24.464 59.6866 25.6805 60.0573C26.5373 60.3184 27.0248 60.4449 27.8997 60.6366C28.8216 60.8386 29.3444 60.9301 30.2798 61.055C31.3661 61.2001 32.9115 61.2707 33.6628 61.2982C32.5756 61.2429 29.7101 60.9744 27.5138 59.671L27.3678 59.5844C24.7208 58.0139 23.9708 57.5689 22.4643 55.5835C20.3697 52.8231 19.5464 50.6136 19.6983 47.1509C19.8298 44.1512 20.6353 42.3928 22.3678 39.9414C23.1586 38.8224 23.7829 38.139 24.7156 37.3344C25.6484 36.5297 29.6687 33.0215 29.6687 33.0215L34.1393 29.396C34.1393 29.396 35.8205 28.0735 36.8731 27.196C37.3368 26.8093 37.7551 26.4857 38.1481 26.1816L38.1482 26.1816C39.0938 25.45 39.8934 24.8314 40.8291 23.7199C41.6193 22.7812 42.0646 22.2342 42.6302 21.1451C44.0242 18.4604 44.2383 16.2851 43.788 13.485C43.3377 10.6848 41.4705 7.44899 38.2561 5.34205ZM30.4084 14.7402C28.6085 15.0983 27.6088 15.3971 25.9378 16.1564C25.5355 16.3392 25.28 16.5132 24.9561 16.7339C24.8806 16.7854 24.8013 16.8394 24.7156 16.8966C24.2862 17.1835 23.948 17.4272 23.5578 17.7656C23.1755 18.0971 22.9741 18.3042 22.7091 18.5767L22.709 18.5767C22.6008 18.6881 22.4818 18.8103 22.3356 18.9565C21.9201 19.3718 21.7052 19.6239 21.3386 20.083C20.8427 20.704 20.5998 21.0813 20.1807 21.7566C19.7714 22.4162 19.5428 22.7905 19.2158 23.4946C18.9318 24.1065 18.754 24.8643 18.6696 25.2243C18.6565 25.2803 18.6456 25.3267 18.6369 25.3614C18.5726 25.6189 18.4781 26.282 18.5083 26.8741C18.5369 27.4355 18.7656 28.2903 18.7656 28.2903C18.7656 28.2903 19.1359 29.1507 19.5375 29.5777C19.8698 29.931 20.1116 30.0806 20.5345 30.3179C21.1487 30.6626 21.5986 30.7472 22.2198 30.8641C22.3277 30.8844 22.4408 30.9057 22.5608 30.9295C23.5861 31.1326 24.1851 31.1317 25.2302 31.1226C26.1627 31.1144 26.6875 31.0639 27.6103 30.9295C29.1236 30.7091 29.9558 30.4512 31.4054 29.9639C31.5441 29.9173 31.6753 29.8737 31.8008 29.8321L31.801 29.832C32.6627 29.5459 33.2572 29.3486 34.1393 28.8696C35.1499 28.3208 36.4255 27.4488 36.8088 27.1316C37.1324 26.8637 37.3116 26.6668 37.5623 26.3914L37.5623 26.3913L37.5624 26.3912C37.6085 26.3406 37.657 26.2873 37.7093 26.2304C37.7833 26.1499 37.8544 26.073 37.923 25.9988C38.5293 25.3435 38.9389 24.9008 39.3818 24.0418C40.0844 22.6787 40.4254 21.7354 40.2501 20.2117C40.0502 18.4737 39.695 17.4787 38.4169 16.2851C37.1681 15.119 35.1363 14.5793 34.1393 14.5149C33.1422 14.4505 31.8427 14.4549 30.4084 14.7402Z" fill="#B894CA"/>
<path d="M38.3016 5.32278C36.0172 3.8281 32.2747 3.23012 31.6301 3.23012C31.6301 3.23012 32.2972 3.14496 32.7259 3.10134C33.1658 3.05658 33.4121 3.01969 33.8539 3.00475C34.1433 2.99497 34.3057 3.00304 34.5952 3.00475C35.8167 3.01198 36.5058 2.98304 37.7215 3.10134C39.1075 3.23621 39.8898 3.35152 41.2345 3.71304C42.2762 3.99307 42.8319 4.24479 43.8451 4.61449C44.8331 4.97499 45.405 5.13784 46.359 5.58034C47.3503 6.04011 47.8807 6.35545 48.8085 6.93252C49.8282 7.5668 50.3779 7.96174 51.3224 8.70323C52.0104 9.2434 52.3897 9.55672 53.0306 10.152C54.0152 11.0667 54.6049 11.568 55.3833 12.6632C55.922 13.4211 56.1949 13.8757 56.5758 14.7237C57.06 15.8015 57.2616 16.4543 57.446 17.6212C57.66 18.9749 57.738 19.7914 57.446 21.1304C57.2425 22.0636 56.9791 22.5504 56.5758 23.4163C56.124 24.3862 55.8046 24.9009 55.2222 25.7987C54.7415 26.5395 54.4498 26.942 53.9008 27.6338C53.2527 28.4503 52.8397 28.8679 52.1281 29.6299C51.3692 30.4425 50.9394 30.8958 50.1299 31.6581C49.5527 32.2018 49.2301 32.5096 48.6151 33.0103C47.8325 33.6475 47.3613 33.9657 46.5202 34.5235C45.6497 35.1006 45.1561 35.4213 44.2319 35.9078C43.6392 36.2198 43.2892 36.3596 42.6849 36.6483C42.1312 36.9128 41.8087 37.0368 41.2668 37.3244C41.1275 37.3983 41.0596 37.4614 40.9122 37.5176C40.686 37.6038 40.6222 37.6464 40.2999 37.6142C39.9776 37.582 37.9471 36.6483 37.9471 36.6483L36.2067 35.9078C36.2067 35.9078 35.6554 35.6272 35.272 35.5537L35.2542 35.5503C34.8441 35.4716 34.5764 35.4202 34.1762 35.5537C33.71 35.7092 33.4587 35.9355 33.2093 36.3586C33.0111 36.695 32.9837 36.9703 32.9515 37.3244C32.9193 37.6786 33.5178 39.4249 33.8862 40.7693C34.3344 42.4051 34.5996 43.3184 35.0464 44.9546C35.5711 46.8759 35.6608 48.0183 36.3678 49.8804C36.556 50.3759 36.6579 50.7497 36.948 51.1038C37.238 51.4579 37.55 51.5611 38.0116 51.5545C38.346 51.5498 38.6884 51.3614 38.7851 51.297C38.8818 51.2326 38.9462 51.2004 39.1074 51.0072C39.2685 50.814 40.0098 49.5584 40.0098 49.5584L41.2023 47.3692C41.2023 47.3692 42.3681 48.7905 43.1361 49.6872C43.6172 50.2489 43.8606 50.5633 44.3286 51.136C44.6008 51.4691 44.7803 51.7196 45.1021 52.0052C45.4603 52.3233 45.629 52.535 46.1012 52.6169C46.3368 52.6579 46.4762 52.6783 46.7136 52.6491C47.0534 52.6073 47.2765 52.5746 47.5838 52.4238C47.8081 52.3137 47.879 52.2469 48.0566 52.0797L48.0672 52.0696C48.2984 51.852 48.5184 51.4579 48.5184 51.4579C48.5184 51.4579 48.6652 51.1325 48.7118 50.9106C48.7841 50.5661 48.8074 50.348 48.7118 50.0092C48.6385 49.7494 48.5184 49.5584 48.3895 49.3975C48.2606 49.2365 47.8819 48.7865 47.5515 48.3994C46.7879 47.5048 45.5533 46.1458 45.5533 46.1458C45.5533 46.1458 44.7798 45.2828 44.6831 45.1156C44.5864 44.9483 44.6014 44.9224 44.6186 44.858C44.6359 44.7936 44.7153 44.697 44.8442 44.6326C44.9732 44.5682 46.1012 44.1819 46.1012 44.1819L47.2615 43.8278C47.2615 43.8278 47.6413 43.7093 47.9061 43.5702C48.1357 43.4496 48.2199 43.38 48.3895 43.1839C48.5701 42.975 48.744 42.5722 48.744 42.5722C48.744 42.5722 48.8906 42.2739 49.0341 42.1214C49.2015 41.9436 49.2976 41.8715 49.4853 41.7351C49.7542 41.5397 49.9224 41.4507 50.2266 41.3166C50.4706 41.209 50.6144 41.1632 50.8712 41.0912C51.1801 41.0046 51.3574 40.9602 51.6769 40.9302C51.9651 40.9032 52.1284 40.8968 52.4182 40.898C52.6828 40.8991 52.8322 40.8998 53.095 40.9302C53.4138 40.9671 53.5912 41.0068 53.9008 41.0912C54.3158 41.2043 54.5404 41.3 54.9321 41.4775C55.4041 41.6915 55.6811 41.8062 56.0924 42.1214C56.5445 42.468 56.7585 42.7219 57.0915 43.1839C57.4796 43.7223 57.6447 44.0711 57.865 44.697C58.0533 45.2322 58.1214 45.5501 58.1873 46.1136C58.2589 46.7255 58.2821 47.0824 58.1873 47.6911C58.1315 48.0497 58.0703 48.2463 57.9617 48.5926C57.8198 49.0448 57.7321 49.3133 57.4782 49.7194C57.3543 49.9178 57.2526 50.0575 57.156 50.2023C57.0593 50.3472 56.7049 50.7435 56.4147 51.0716C55.9668 51.5779 55.6769 51.8261 55.1899 52.295C54.5743 52.8878 54.2918 53.1314 53.5785 53.776C53.0296 54.2718 52.6574 54.5485 52.0314 55.0638C51.505 55.4972 51.2013 55.7309 50.6456 56.1262C49.926 56.6379 49.5491 56.8901 48.8085 57.3174C48.1699 57.6858 47.7984 57.87 47.1325 58.1866C46.4148 58.528 46.0024 58.6994 45.2632 58.9915C44.5783 59.2622 44.3438 59.3352 43.4906 59.6354C42.7548 59.8943 41.589 60.2471 41.589 60.2471C41.589 60.2471 40.8072 60.4961 40.2999 60.6335C39.6634 60.8058 39.3058 60.9064 38.6562 61.0198C38.0071 61.1331 37.6367 61.1571 36.9802 61.213C36.2519 61.2749 35.8418 61.2967 35.1109 61.3095C34.7334 61.3162 34.144 61.3095 34.144 61.3095C34.144 61.3095 30.3087 61.3095 27.5369 59.6676L27.3906 59.5809C24.7381 58.01 23.9865 57.5649 22.4769 55.5789C20.378 52.8177 19.553 50.6075 19.7051 47.1438C19.837 44.1433 20.6441 42.3843 22.3802 39.9322C23.1727 38.8129 23.7983 38.1293 24.733 37.3244C25.6676 36.5195 29.6963 33.0103 29.6963 33.0103L34.1762 29.3838C34.1762 29.3838 35.8609 28.0609 36.9158 27.1831C38.4986 25.8658 39.5526 25.2799 40.88 23.706C41.6719 22.767 42.1181 22.2199 42.6849 21.1304C44.0818 18.445 44.2963 16.269 43.8451 13.4681C43.3939 10.6671 41.5227 7.43033 38.3016 5.32278Z" fill="#3D2E46"/>
</svg>
