<svg width="512" height="512" viewBox="0 0 512 512" fill="none" xmlns="http://www.w3.org/2000/svg">
<path fill-rule="evenodd" clip-rule="evenodd" d="M309.049 41.7364C290.811 29.7825 260.933 25 255.787 25C252.171 25 249.811 25.1029 246.01 25.515C242.774 25.8657 240.984 26.2536 237.776 26.8024C233.756 27.4902 233.161 27.6104 227.859 28.6825L226.97 28.8623C216.742 30.9296 211.127 32.7329 201.24 36.0718C191.198 39.463 185.598 41.5642 176.024 46.1136C167.005 50.3994 162.122 53.2037 153.639 58.4728C143.596 64.7114 138.117 68.5279 128.938 75.9817C119.112 83.961 113.893 88.8606 105.267 98.1253C94.4826 109.707 88.814 116.706 80.3086 130.053C73.6856 140.447 70.584 146.686 65.3852 157.861C60.3608 168.661 57.6914 174.838 54.064 186.185C50.44 197.52 48.956 204.08 46.8596 215.795C44.0131 231.701 43.0083 240.833 43.0001 256.992C42.9929 270.913 43.647 278.777 45.8304 292.525C47.5102 303.103 48.8644 308.989 51.7483 319.304C55.1049 331.309 57.3659 337.981 62.2976 349.429C69.063 365.133 73.7743 373.661 83.3962 387.794C92.0023 400.435 97.4898 407.164 108.097 418.177C119.616 430.137 126.745 436.341 140.26 445.985C156.192 457.354 166.027 462.703 184.001 470.446C193.345 474.472 198.712 476.493 208.444 479.458C215.299 481.547 219.198 482.559 226.198 484.093C233.573 485.709 237.755 486.441 245.238 487.44C253.929 488.601 266.292 489.166 272.302 489.385C263.605 488.943 240.681 486.796 223.11 476.368L221.942 475.675C200.767 463.112 194.766 459.551 182.714 443.668C165.958 421.585 159.371 403.909 160.586 376.207C161.639 352.21 168.082 338.143 181.942 318.531C188.269 309.579 193.263 304.112 200.725 297.675C208.187 291.238 240.349 263.172 240.349 263.172L276.114 234.168C276.114 234.168 289.564 223.588 297.985 216.568C301.695 213.475 305.042 210.885 308.186 208.453C315.751 202.6 322.147 197.651 329.633 188.759C335.955 181.25 339.517 176.874 344.041 168.161C355.194 146.683 356.906 129.281 353.304 106.88C349.702 84.4787 334.764 58.5919 309.049 41.7364ZM246.267 116.922C231.868 119.786 223.871 122.177 210.503 128.251C207.284 129.713 205.24 131.106 202.649 132.872C202.045 133.283 201.411 133.715 200.725 134.173C197.289 136.468 194.584 138.418 191.462 141.125C188.404 143.777 186.793 145.433 184.673 147.613C183.807 148.504 182.855 149.483 181.685 150.652C178.361 153.974 176.641 155.991 173.709 159.664C169.742 164.632 167.799 167.65 164.446 173.053C161.171 178.33 159.342 181.324 156.727 186.957C154.454 191.852 153.032 197.915 152.357 200.794C152.252 201.242 152.165 201.614 152.095 201.891C151.581 203.951 150.824 209.256 151.066 213.993C151.295 218.484 153.125 225.322 153.125 225.322C153.125 225.322 156.087 232.206 159.3 235.621C161.958 238.448 163.893 239.645 167.276 241.543C172.19 244.301 175.789 244.978 180.758 245.913C181.622 246.075 182.526 246.245 183.486 246.436C191.689 248.061 196.48 248.054 204.842 247.981C212.302 247.915 216.5 247.511 223.882 246.436C235.989 244.673 242.646 242.61 254.244 238.711C255.353 238.338 256.402 237.99 257.407 237.656L257.408 237.656C264.301 235.368 269.057 233.789 276.114 229.957C284.199 225.566 294.404 218.59 297.47 216.053C300.059 213.909 301.493 212.334 303.499 210.131L303.5 210.13C303.868 209.724 304.256 209.298 304.674 208.843C305.266 208.199 305.835 207.584 306.384 206.991C311.235 201.748 314.512 198.207 318.054 191.334C323.675 180.43 326.404 172.883 325.001 160.694C323.402 146.79 320.56 138.829 310.335 129.281C300.345 119.952 284.09 115.634 276.114 115.119C268.138 114.604 257.742 114.639 246.267 116.922Z" fill="#B9B9B9"/>
<path d="M255.041 24.8409C260.198 24.8409 290.138 29.6248 308.413 41.5822C334.182 58.4427 349.151 84.3369 352.761 106.745C356.371 129.152 354.654 146.56 343.479 168.043C338.945 176.759 335.375 181.136 329.04 188.648C318.421 201.24 309.989 205.926 297.326 216.464C288.888 223.487 275.41 234.07 275.41 234.07L239.571 263.083C239.571 263.083 207.341 291.156 199.864 297.595C192.386 304.034 187.381 309.503 181.042 318.458C167.153 338.075 160.696 352.146 159.641 376.151C158.424 403.86 165.024 421.541 181.815 443.631C193.892 459.519 199.905 463.08 221.125 475.648L222.295 476.341C244.469 489.476 275.152 489.476 275.152 489.476C275.152 489.476 279.867 489.53 282.887 489.476C288.734 489.374 292.015 489.199 297.842 488.704C303.093 488.257 306.057 488.064 311.249 487.158C316.446 486.251 319.307 485.446 324.399 484.068C328.457 482.969 334.712 480.977 334.712 480.977C334.712 480.977 344.038 478.155 349.925 476.083C356.75 473.682 358.626 473.098 364.106 470.932C370.019 468.595 373.318 467.224 379.06 464.493C384.387 461.96 387.359 460.487 392.468 457.539C398.393 454.121 401.408 452.103 407.165 448.01C411.611 444.848 414.04 442.977 418.252 439.51C423.259 435.388 426.237 433.175 430.628 429.208C436.334 424.052 438.594 422.103 443.52 417.36C447.416 413.609 449.734 411.623 453.317 407.573C455.639 404.948 458.474 401.778 459.248 400.619C460.021 399.46 460.834 398.342 461.826 396.755C463.857 393.507 464.558 391.359 465.694 387.741C466.563 384.971 467.052 383.398 467.498 380.529C468.257 375.659 468.071 372.804 467.498 367.909C466.971 363.401 466.427 360.858 464.92 356.576C463.158 351.569 461.837 348.779 458.732 344.471C456.068 340.775 454.356 338.744 450.739 335.972C447.449 333.45 445.233 332.532 441.457 330.82C438.323 329.4 436.526 328.634 433.206 327.73C430.729 327.055 429.31 326.737 426.76 326.442C424.657 326.199 423.462 326.193 421.346 326.184C419.028 326.175 417.721 326.226 415.415 326.442C412.859 326.682 411.441 327.037 408.969 327.73C406.915 328.305 405.765 328.672 403.813 329.533C401.379 330.606 400.034 331.318 397.882 332.881C396.381 333.972 395.612 334.549 394.273 335.972C393.125 337.191 391.952 339.577 391.952 339.577C391.952 339.577 390.561 342.8 389.116 344.471C387.759 346.04 387.086 346.597 385.248 347.562C383.13 348.675 380.092 349.622 380.092 349.622L370.81 352.455C370.81 352.455 361.785 355.546 360.754 356.061C359.723 356.576 359.087 357.349 358.949 357.864C358.811 358.379 358.691 358.586 359.465 359.925C360.238 361.263 366.426 368.166 366.426 368.166C366.426 368.166 376.303 379.039 382.412 386.195C385.056 389.292 388.085 392.892 389.116 394.18C390.147 395.468 391.108 396.995 391.694 399.073C392.459 401.784 392.273 403.529 391.694 406.285C391.322 408.06 390.147 410.664 390.147 410.664C390.147 410.664 388.387 413.816 386.538 415.557L386.453 415.637C385.032 416.975 384.465 417.509 382.67 418.39C380.212 419.597 378.427 419.859 375.708 420.193C373.81 420.427 372.694 420.263 370.81 419.936C367.032 419.28 365.682 417.586 362.817 415.042C360.242 412.756 358.807 410.753 356.629 408.088C352.885 403.507 350.937 400.992 347.089 396.498C340.944 389.324 331.618 377.954 331.618 377.954L322.078 395.468C322.078 395.468 316.148 405.512 314.859 407.058C313.57 408.603 313.054 408.861 312.281 409.376C311.507 409.891 308.768 411.398 306.092 411.436C302.4 411.489 299.904 410.664 297.584 407.83C295.263 404.997 294.448 402.008 292.943 398.043C287.286 383.147 286.569 374.007 282.371 358.637C278.797 345.547 276.675 338.241 273.089 325.154C270.143 314.399 265.354 300.429 265.612 297.595C265.87 294.762 266.089 292.56 267.675 289.869C269.67 286.484 271.68 284.674 275.41 283.43C278.611 282.362 280.753 282.773 284.034 283.402L284.176 283.43C287.243 284.018 291.654 286.263 291.654 286.263L305.577 292.187C305.577 292.187 321.821 299.656 324.399 299.913C326.977 300.171 327.488 299.83 329.298 299.141C330.477 298.691 331.02 298.187 332.134 297.595C336.469 295.295 339.05 294.302 343.479 292.187C348.314 289.877 351.114 288.759 355.855 286.263C363.249 282.37 367.198 279.805 374.161 275.188C380.891 270.726 384.66 268.18 390.921 263.083C395.84 259.077 398.421 256.614 403.039 252.265C409.515 246.166 412.954 242.54 419.025 236.039C424.718 229.943 428.021 226.602 433.206 220.07C437.599 214.536 439.932 211.316 443.777 205.389C448.437 198.207 450.992 194.09 454.607 186.33C457.833 179.403 459.94 175.509 461.568 168.043C463.904 157.331 463.28 150.799 461.568 139.97C460.093 130.634 458.48 125.412 454.607 116.789C451.559 110.005 449.376 106.369 445.067 100.306C438.839 91.5438 434.122 87.5334 426.245 80.216C421.118 75.4538 418.083 72.9472 412.579 68.6259C405.023 62.6939 400.626 59.5344 392.468 54.4602C385.046 49.8436 380.802 47.3209 372.872 43.6427C365.24 40.1027 360.665 38.7999 352.761 35.9159C344.655 32.9584 340.209 30.9445 331.876 28.7043C321.118 25.8121 314.86 24.8896 303.772 23.8107C294.046 22.8643 288.533 23.0958 278.762 23.038C276.446 23.0243 275.146 22.9598 272.832 23.038C269.296 23.1575 267.326 23.4526 263.807 23.8107C260.378 24.1596 255.041 24.8409 255.041 24.8409Z" fill="white"/>
</svg>
